<svg width="60" height="60" viewBox="0 0 60 60" fill="none" xmlns="http://www.w3.org/2000/svg">
    <rect width="60" height="60" rx="12" fill="url(#paint0_linear_1683_11003)"/>
    <path fill-rule="evenodd" clip-rule="evenodd" d="M40.9701 13.1284C40.3871 13.4328 40.2434 13.7051 39.8122 15.3311C39.6286 16.0119 39.4369 16.7408 39.373 16.9651C38.8939 18.7032 38.5506 20.0728 38.5266 20.2891C38.4707 20.8498 38.7981 21.3944 39.3251 21.6187C39.6844 21.7709 39.8442 21.7629 40.0039 21.5787C40.0837 21.4905 40.3153 21.3384 40.5149 21.2342L40.8902 21.05L45.5695 21.026L50.2568 21.002L50.3765 20.5454C50.4404 20.2971 50.6081 19.6723 50.7439 19.1677C50.8716 18.6631 51.0553 17.9743 51.1511 17.6459C51.2389 17.3175 51.3348 16.933 51.3587 16.7969C51.4705 16.1881 50.9834 15.5393 50.2568 15.3471C50.0252 15.283 49.6739 15.1869 49.4742 15.1308C49.2746 15.0748 48.3962 14.8265 47.5179 14.5782C46.6395 14.3299 45.4657 14.0015 44.9067 13.8493C41.561 12.9121 41.4332 12.8881 40.9701 13.1284ZM42.5272 15.5554C42.9424 15.6835 43.5892 15.8677 43.9645 15.9638C44.3398 16.06 44.8748 16.2121 45.1623 16.2922C45.7212 16.4604 47.4939 16.949 48.5959 17.2454C48.9712 17.3495 49.3225 17.4697 49.3784 17.5097C49.5142 17.6219 49.4982 18.0464 49.3385 18.2226C49.1788 18.4068 48.9792 18.4068 48.3883 18.2146C48.1327 18.1345 47.4859 17.9503 46.9589 17.8061C46.0486 17.5578 43.5812 16.8689 42.8865 16.6687C42.7108 16.6206 42.4234 16.5325 42.2477 16.4845C42.072 16.4284 41.7766 16.3403 41.5929 16.2922C41.2176 16.1881 41.0499 15.9719 41.1377 15.6995C41.2735 15.243 41.4572 15.227 42.5272 15.5554Z" fill="white"/>
    <path fill-rule="evenodd" clip-rule="evenodd" d="M41.3454 22.1393C40.2514 22.3556 39.8122 23.1566 39.8122 24.9107V25.8158H51.231V41.9153L45.5455 41.9313L39.8521 41.9554V42.9966C39.8601 44.0299 39.8601 44.0379 40.1476 44.6066C40.459 45.2153 40.8503 45.6158 41.3613 45.8481C41.6648 45.9842 41.9921 46.0003 46.4159 46.0003C51.6941 46.0003 51.5344 46.0163 52.1333 45.4476C52.5166 45.0872 52.7162 44.7588 52.8679 44.2702C53.0436 43.6855 53.0436 24.1257 52.8679 23.549C52.6284 22.7481 52.0934 22.2515 51.3268 22.1233C50.7598 22.0352 41.8165 22.0432 41.3454 22.1393ZM48.1806 23.6211C48.3803 23.7573 48.4042 23.9575 48.2525 24.1658C48.1647 24.2939 47.989 24.302 46.4399 24.2939C45.3299 24.2939 44.6991 24.2619 44.6272 24.2058C44.4995 24.0937 44.4915 23.7173 44.6193 23.5891C44.6911 23.517 45.1862 23.493 46.36 23.493C47.7175 23.493 48.0289 23.517 48.1806 23.6211Z" fill="white"/>
    <path fill-rule="evenodd" clip-rule="evenodd" d="M7.0891 25.4554C7.01723 25.6075 6.99328 27.5379 7.00126 32.8083C7.00925 36.741 7.0332 40.0571 7.06515 40.1932L7.11306 40.4335L11.3452 40.4575C15.2499 40.4736 15.5853 40.4655 15.6811 40.3374C15.745 40.2413 15.7769 39.8328 15.7769 38.9757C15.7769 37.8544 15.761 37.7503 15.6252 37.6702C15.5294 37.6221 14.4594 37.5981 12.7266 37.5981L9.98771 37.6061L9.96375 35.9961L9.94778 34.3862H12.3753C15.3218 34.3862 15.0583 34.5223 15.0583 32.9765C15.0583 32.3918 15.0343 31.8631 15.0104 31.791C14.9704 31.6789 14.667 31.6629 12.4551 31.6629H9.94778V28.1386H12.527C15.0503 28.1386 15.1142 28.1386 15.2659 27.9704C15.3936 27.8262 15.4176 27.65 15.4416 26.6408C15.4655 25.8318 15.4416 25.4554 15.3777 25.3672C15.2898 25.2711 14.659 25.2551 11.2254 25.2551H7.17694L7.0891 25.4554Z" fill="white"/>
    <path fill-rule="evenodd" clip-rule="evenodd" d="M17.35 25.3032C17.3181 25.3352 17.2941 28.7634 17.2941 32.9204V40.4736H20.2486V32.9925C20.2486 26.1442 20.2406 25.5034 20.1129 25.4073C20.017 25.3272 19.6417 25.2872 18.6995 25.2711C17.9888 25.2551 17.3819 25.2711 17.35 25.3032Z" fill="white"/>
    <path fill-rule="evenodd" clip-rule="evenodd" d="M34.9652 26.801L34.6219 26.8811V29.4121L33.8872 29.4362L33.1446 29.4602V31.783L33.8872 31.807L34.6219 31.8311V34.9709C34.6219 38.2629 34.6698 38.7755 35.0052 39.3842C35.2048 39.7527 35.5721 40.1051 35.9793 40.3214C36.3147 40.4976 36.4185 40.5136 37.6163 40.5056C38.319 40.5056 39.0376 40.4655 39.2133 40.4255L39.5327 40.3454L39.5567 39.2481L39.5806 38.1507H39.0137C38.7023 38.1507 38.327 38.1027 38.1673 38.0306C37.6722 37.8223 37.6482 37.7022 37.6722 34.6104L37.6961 31.8631L38.6544 31.8391C39.2932 31.8231 39.6285 31.783 39.6685 31.7189C39.7004 31.6629 39.7324 31.1262 39.7324 30.5175V29.4202H37.6562V28.1066C37.6562 26.9852 37.6402 26.785 37.5285 26.7449C37.3288 26.6648 35.3325 26.7049 34.9652 26.801Z" fill="white"/>
    <path fill-rule="evenodd" clip-rule="evenodd" d="M41.9921 26.9532C41.8005 26.9932 41.6488 27.0733 41.6408 27.1214C41.6408 27.1774 41.6328 27.634 41.6328 28.1386C41.6248 29.4522 41.6488 29.4202 40.7704 29.4202H40.0518V30.5175C40.0518 31.1262 40.0837 31.6629 40.1156 31.7189C40.1556 31.783 40.443 31.8231 40.8902 31.8391L41.6089 31.8631L41.6328 35.2432C41.6488 38.4631 41.6568 38.6473 41.8165 39.0799C42.0241 39.6406 42.4154 40.0811 42.9104 40.3294C43.2618 40.5056 43.3736 40.5136 44.6831 40.5056C45.4497 40.4976 46.1923 40.4575 46.3201 40.4175L46.5597 40.3454V38.1908L45.817 38.1427C45.1463 38.1027 45.0505 38.0787 44.8588 37.8784L44.6432 37.6702L44.6193 34.7466L44.5953 31.8231H46.5996V29.4202H44.6033V28.2668C44.6033 27.634 44.5793 27.0573 44.5554 26.9852C44.5155 26.8731 44.3398 26.8571 43.4135 26.8651C42.8146 26.8731 42.1758 26.9051 41.9921 26.9532Z" fill="white"/>
    <path fill-rule="evenodd" clip-rule="evenodd" d="M25.6546 29.1078C23.8898 29.5403 22.5723 30.7257 21.9415 32.4558C21.2388 34.4022 21.4624 36.8692 22.4845 38.4631C23.1792 39.5444 24.2572 40.3214 25.4869 40.6338C26.469 40.8821 28.2098 40.842 28.9125 40.5537C29.0003 40.5136 29.2079 40.4415 29.3676 40.3935C29.5273 40.3454 29.8867 40.1612 30.1662 39.977C31.7871 38.9277 32.7054 37.0855 32.7054 34.8668C32.7054 34.0177 32.6096 33.417 32.3381 32.5439C31.6115 30.2372 29.6791 28.9236 27.052 28.9476C26.5808 28.9476 26.0378 29.0117 25.6546 29.1078ZM27.5949 31.5828C28.4014 31.767 29.0403 32.2556 29.3916 32.9765C29.9905 34.202 29.9426 35.916 29.2798 36.9653C28.4014 38.351 26.3253 38.5432 25.2473 37.3498C24.4967 36.5088 24.2172 35.075 24.5606 33.7294C24.856 32.56 25.5268 31.8311 26.5329 31.5908C26.9481 31.4947 27.1717 31.4947 27.5949 31.5828Z" fill="white"/>
    <defs>
        <linearGradient id="paint0_linear_1683_11003" x1="60" y1="60" x2="-11.3946" y2="39.2998" gradientUnits="userSpaceOnUse">
            <stop stop-color="#E02729"/>
            <stop offset="1" stop-color="#F07272"/>
        </linearGradient>
    </defs>
</svg>
