<svg style="color:white" width="46" height="33" viewBox="0 0 46 33" fill="none" xmlns="http://www.w3.org/2000/svg">
    <path fill-rule="evenodd" clip-rule="evenodd" d="M33.9701 0.128408C33.3871 0.432777 33.2434 0.705108 32.8122 2.33108C32.6286 3.0119 32.4369 3.74079 32.373 3.96506C31.8939 5.70317 31.5506 7.07283 31.5266 7.28909C31.4707 7.84977 31.7981 8.39443 32.3251 8.6187C32.6844 8.77088 32.8442 8.76287 33.0039 8.57865C33.0837 8.49054 33.3153 8.33836 33.5149 8.23423L33.8902 8.05001L38.5695 8.02598L43.2568 8.00195L43.3765 7.5454C43.4404 7.2971 43.6081 6.67234 43.7439 6.16773C43.8716 5.66312 44.0553 4.97428 44.1511 4.64588C44.2389 4.31749 44.3348 3.93302 44.3587 3.79686C44.4705 3.18812 43.9834 2.53933 43.2568 2.3471C43.0252 2.28302 42.6739 2.1869 42.4742 2.13084C42.2746 2.07477 41.3962 1.82647 40.5179 1.57817C39.6395 1.32986 38.4657 1.00147 37.9067 0.849282C34.561 -0.0878536 34.4332 -0.111883 33.9701 0.128408ZM35.5272 2.55535C35.9424 2.68351 36.5892 2.86773 36.9645 2.96385C37.3398 3.05996 37.8748 3.21215 38.1623 3.29224C38.7212 3.46045 40.4939 3.94904 41.5959 4.2454C41.9712 4.34952 42.3225 4.46967 42.3784 4.50972C42.5142 4.62185 42.4982 5.04637 42.3385 5.22258C42.1788 5.40681 41.9792 5.40681 41.3883 5.21457C41.1327 5.13448 40.4859 4.95025 39.9589 4.80608C39.0486 4.55778 36.5812 3.86894 35.8865 3.6687C35.7108 3.62064 35.4234 3.53253 35.2477 3.48448C35.072 3.42841 34.7766 3.3403 34.5929 3.29224C34.2176 3.18812 34.0499 2.97186 34.1377 2.69952C34.2735 2.24297 34.4572 2.22695 35.5272 2.55535Z" fill="currentColor"/>
    <path fill-rule="evenodd" clip-rule="evenodd" d="M34.3454 9.13934C33.2514 9.3556 32.8122 10.1566 32.8122 11.9107V12.8158H44.231V28.9153L38.5455 28.9313L32.8521 28.9554V29.9966C32.8601 31.0299 32.8601 31.0379 33.1476 31.6066C33.459 32.2153 33.8503 32.6158 34.3613 32.8481C34.6648 32.9842 34.9921 33.0003 39.4159 33.0003C44.6941 33.0003 44.5344 33.0163 45.1333 32.4476C45.5166 32.0872 45.7162 31.7588 45.8679 31.2702C46.0436 30.6855 46.0436 11.1257 45.8679 10.549C45.6284 9.74808 45.0934 9.25147 44.3268 9.12332C43.7598 9.03521 34.8165 9.04322 34.3454 9.13934ZM41.1806 10.6211C41.3803 10.7573 41.4042 10.9575 41.2525 11.1658C41.1647 11.2939 40.989 11.302 39.4399 11.2939C38.3299 11.2939 37.6991 11.2619 37.6272 11.2058C37.4995 11.0937 37.4915 10.7173 37.6193 10.5891C37.6911 10.517 38.1862 10.493 39.36 10.493C40.7175 10.493 41.0289 10.517 41.1806 10.6211Z" fill="currentColor"/>
    <path fill-rule="evenodd" clip-rule="evenodd" d="M0.0891008 12.4554C0.0172345 12.6075 -0.00672087 14.5379 0.00126427 19.8083C0.00924941 23.741 0.0332048 27.0571 0.0651454 27.1932L0.113056 27.4335L4.34518 27.4575C8.24991 27.4736 8.58529 27.4655 8.68111 27.3374C8.74499 27.2413 8.77693 26.8328 8.77693 25.9757C8.77693 24.8544 8.76096 24.7503 8.62522 24.6702C8.52939 24.6221 7.45939 24.5981 5.72661 24.5981L2.98771 24.6061L2.96375 22.9961L2.94778 21.3862H5.37526C8.32178 21.3862 8.05827 21.5223 8.05827 19.9765C8.05827 19.3918 8.03432 18.8631 8.01036 18.791C7.97043 18.6789 7.667 18.6629 5.45511 18.6629H2.94778V15.1386H5.52698C8.05029 15.1386 8.11417 15.1386 8.26588 14.9704C8.39365 14.8262 8.4176 14.65 8.44156 13.6408C8.46551 12.8318 8.44156 12.4554 8.37768 12.3672C8.28984 12.2711 7.65901 12.2551 4.2254 12.2551H0.176937L0.0891008 12.4554Z" fill="currentColor"/>
    <path fill-rule="evenodd" clip-rule="evenodd" d="M10.35 12.3032C10.3181 12.3352 10.2941 15.7634 10.2941 19.9204V27.4736H13.2486V19.9925C13.2486 13.1442 13.2406 12.5034 13.1129 12.4073C13.017 12.3272 12.6417 12.2872 11.6995 12.2711C10.9888 12.2551 10.3819 12.2711 10.35 12.3032Z" fill="currentColor"/>
    <path fill-rule="evenodd" clip-rule="evenodd" d="M27.9652 13.801L27.6219 13.8811V16.4121L26.8872 16.4362L26.1446 16.4602V18.783L26.8872 18.807L27.6219 18.8311V21.9709C27.6219 25.2629 27.6698 25.7755 28.0052 26.3842C28.2048 26.7527 28.5721 27.1051 28.9793 27.3214C29.3147 27.4976 29.4185 27.5136 30.6163 27.5056C31.319 27.5056 32.0376 27.4655 32.2133 27.4255L32.5327 27.3454L32.5567 26.2481L32.5806 25.1507H32.0137C31.7023 25.1507 31.327 25.1027 31.1673 25.0306C30.6722 24.8223 30.6482 24.7022 30.6722 21.6104L30.6961 18.8631L31.6544 18.8391C32.2932 18.8231 32.6285 18.783 32.6685 18.7189C32.7004 18.6629 32.7324 18.1262 32.7324 17.5175V16.4202H30.6562V15.1066C30.6562 13.9852 30.6402 13.785 30.5285 13.7449C30.3288 13.6648 28.3325 13.7049 27.9652 13.801Z" fill="currentColor"/>
    <path fill-rule="evenodd" clip-rule="evenodd" d="M34.9921 13.9532C34.8005 13.9932 34.6488 14.0733 34.6408 14.1214C34.6408 14.1774 34.6328 14.634 34.6328 15.1386C34.6248 16.4522 34.6488 16.4202 33.7704 16.4202H33.0518V17.5175C33.0518 18.1262 33.0837 18.6629 33.1156 18.7189C33.1556 18.783 33.443 18.8231 33.8902 18.8391L34.6089 18.8631L34.6328 22.2432C34.6488 25.4631 34.6568 25.6473 34.8165 26.0799C35.0241 26.6406 35.4154 27.0811 35.9104 27.3294C36.2618 27.5056 36.3736 27.5136 37.6831 27.5056C38.4497 27.4976 39.1923 27.4575 39.3201 27.4175L39.5597 27.3454V25.1908L38.817 25.1427C38.1463 25.1027 38.0505 25.0787 37.8588 24.8784L37.6432 24.6702L37.6193 21.7466L37.5953 18.8231H39.5996V16.4202H37.6033V15.2668C37.6033 14.634 37.5793 14.0573 37.5554 13.9852C37.5155 13.8731 37.3398 13.8571 36.4135 13.8651C35.8146 13.8731 35.1758 13.9051 34.9921 13.9532Z" fill="currentColor"/>
    <path fill-rule="evenodd" clip-rule="evenodd" d="M18.6546 16.1078C16.8898 16.5403 15.5723 17.7257 14.9415 19.4558C14.2388 21.4022 14.4624 23.8692 15.4845 25.4631C16.1792 26.5444 17.2572 27.3214 18.4869 27.6338C19.469 27.8821 21.2098 27.842 21.9125 27.5537C22.0003 27.5136 22.2079 27.4415 22.3676 27.3935C22.5273 27.3454 22.8867 27.1612 23.1662 26.977C24.7871 25.9277 25.7054 24.0855 25.7054 21.8668C25.7054 21.0177 25.6096 20.417 25.3381 19.5439C24.6115 17.2372 22.6791 15.9236 20.052 15.9476C19.5808 15.9476 19.0378 16.0117 18.6546 16.1078ZM20.5949 18.5828C21.4014 18.767 22.0403 19.2556 22.3916 19.9765C22.9905 21.202 22.9426 22.916 22.2798 23.9653C21.4014 25.351 19.3253 25.5432 18.2473 24.3498C17.4967 23.5088 17.2172 22.075 17.5606 20.7294C17.856 19.56 18.5268 18.8311 19.5329 18.5908C19.9481 18.4947 20.1717 18.4947 20.5949 18.5828Z" fill="currentColor"/>
</svg>
